<?xml version="1.0" encoding="utf-8"?>
<!-- Generator: Adobe Illustrator 19.0.0, SVG Export Plug-In . SVG Version: 6.00 Build 0)  -->
<svg version="1.1" id="logo" xmlns="http://www.w3.org/2000/svg" xmlns:xlink="http://www.w3.org/1999/xlink" x="0px" y="0px"
	 width="718.9px" height="419px" viewBox="0 0 718.9 419" enable-background="new 0 0 718.9 419" xml:space="preserve">
<g id="logo_1_">
	<g id="bazarcreativo">
		<path d="M240.3,375c4.5,2.6,20.3,0.3,26.5-3.9c13.2-9,21.4-15.4,27-20.9c-0.7-2.8-1.4-5.6-2.1-8.4c-3.3-13.2-6.3-26.4-10.4-39.4
			c-6.4,5.8-12.4,11.9-17.7,18.4c1.5,9.7,3,19.4,4.6,29.5c0.3,1.9-1.2,3.6-3.1,3.6h-9.1c-1.5,0-2.7-1.4-2.6-2.9
			c0.8-6.6,1.6-13.1,2.4-19.6c-1.6,2.5-3.1,5-4.5,7.6l-0.2,0.4c-5.2,9.8-4.1,13.7-2.3,15.2c2.4,2,9.6,2.5,11.2,1.5l4.4,6.1
			c-1.8,1.3-4.7,1.9-7.9,1.9c-4.6,0-9.6-1.3-12.5-3.7c-5.8-4.8-5.7-13.1,0.5-24.5l0.2-0.4c3.7-7,8.1-13.4,13-19.5
			c0.2-1.2,0.3-2.5,0.5-3.7c1.8,0,1.8,0,2.7,0c5.4-6.2,11.4-12,17.7-17.6c-4.5-13.6-3.2-11.5-18.1-11.8
			c-14.8-0.3-16.3,0.7-19.2,15.6c-4.2,21.6-8.3,43.2-12.3,64.8C230.7,367,233.8,371.2,240.3,375z"/>
		<path d="M246.8,383.7c-4.1,0-7.8-0.6-10.3-2.2c-3.8-2.2-6.9-4.7-9.3-7.5c-1.8,9.6-3.6,19.2-5.4,28.8c-1.9,10,0.5,13,10.6,13.8
			c9.6,0.8,14.9-4,15.5-13.9c0.2-3.6,0.3-7.2,0.9-10.7c0.6-3.5,1.2-6.3,1.8-8.7C249.4,383.6,248.1,383.7,246.8,383.7z"/>
		<path d="M308.6,410.9c-4.2-17.4-8.4-34.8-12.7-52.2c-5.6,5-13.3,10.8-24.1,18.2c0.2,0,0.3,0.1,0.5,0.1c0.1,0,0.2,0.1,0.4,0.2
			c1,0.6,1.6,1.7,1.8,2.9c0.8,6.8,1.1,14.1,3.1,21c1.5,5.1,4.7,12,8.9,13.6c5.5,2.2,12.1,1.9,18.7,2.1c2.3,0.1,4.1-1.9,3.8-4.2
			C308.9,411.9,308.8,411.4,308.6,410.9z"/>
		<path d="M109.5,364.4c-0.5-1.8-2.2-3.1-4.1-3.1c-5.4,0-6.1,4.2-6.1,8.5c0.1,11.5,1,23,0.8,34.5c-0.2,12.7-3.8,15.7-13.2,13.8
			c-6.4-1.3-7.8-6.8-7.8-11.6c-0.3-38.1-0.2-76.2,0-114.3c0-1.8,1.7-4.8,3.1-5.1c19-4,38.2-7.8,56,4c3.2,2.1,5.7,5.7,7.8,9.1
			c11.4,18.5,6.6,42.7-10.6,55.7c-1.8,1.3-3.1,5.1-2.6,7.3c3.1,15.2,6.5,30.4,10.2,45.5c1.4,5.9,0.5,8.6-6.2,8.6
			c-11.6,0-14.4-2.3-17-13.5C116.7,390.4,113,377.4,109.5,364.4z M128.3,334.7c3.2-1,2.7-10.5-0.4-19c-1-4.2-4.8-9.4-8.7-11
			c-3.8-1.6-8-2-12.4-2.4c-3.9-0.3-7.2,2.7-7.2,6.6v30c0,2.9,6,1.4,7.2,1.1C114.7,338.2,118,337.5,128.3,334.7z"/>
		<path d="M509.4,341.1c1.3-11.2,1.4-23.9,4.5-35.8c3.9-15.4,19.8-24.1,35.6-21.5c17.3,2.8,28.5,14.5,31.1,32.2
			c3.9,26.1,1.8,52.2-2.4,77.8c-3.5,21.6-12.7,24.8-35,23.2c-19.4-1.4-26.6-9.2-30.4-28.3c-1.2-5.9-2.9-11.8-3.3-17.7
			C509,361.5,509.4,351.9,509.4,341.1z M557.1,391.7c1.7-1.2,2.8-3,3-5c0.3-3,0-7,0.1-10.4c0.6-19.9,5.1-37.6-0.7-57.5
			c-2.4-8.4-8-13.3-15-12.6c-8.2,0.8-12.1,4.9-12.2,14.6c-0.3,18-0.7,42.2-0.2,60.2c0,11.9,3,12.5,12.7,12.8
			C548.8,393.9,552.3,395,557.1,391.7z"/>
		<path d="M417.4,284.2c2.7-2.7,11.2-1.2,20.5,1.2c3,0.8,4.6,3,5,5.1c2.8,13.6,5,27.3,7.5,41c3.4,18.3,6.9,36.7,10.4,55
			c0.4,1.3,1.3,1.6,1.9,0c2.6-12.4,5.2-24.7,7.7-37.1c3.7-18.8,6.7-37.8,11.1-56.5c0.8-3.4,4.3-4.6,6.9-5.2
			c16.2-3.6,19.9,0.3,16,16.3c-8.3,33.8-16.9,67.6-24.9,101.4c-1.7,7.3-6.6,10-12.6,10.7c-10.2,1.1-18.5-3.4-20.4-10.3
			c-9.8-35.8-19.5-71.6-28.9-107.5C416.5,294.1,414.1,286.5,417.4,284.2z"/>
		<path d="M177.1,334.8c0,1.2,0.9,2.2,2.1,2.3c5.1,0.4,9.7,0.5,14.3,1.4c1.9,0.4,4.7,2.8,4.9,4.6c0.5,4.2,0.4,8.5,0.3,13.5
			c0,2-1.7,3.6-3.7,3.5c-4.2-0.2-8.4-0.4-12.9-0.7c-1.9-0.1-3.4,1.4-3.3,3.3c0.6,9,1.2,18.2,1.8,28.2c0.1,1.8,1.6,3.2,3.4,3.2
			c6.3,0,12.3-0.1,18.3,0c8.4,0.2,15.6,11.4,11.8,18.8c-0.7,1.4-3.2,2.3-5,2.5c-8.9,0.6-17.8,0.8-26.7,1.2
			c-6.1,0.3-12.1,0.5-19.2,0.9c-2,0.1-3.8-1.4-4.1-3.4c-4.6-41.3,1.4-83.4-2.1-126.8c-0.2-2.2,1.7-4.1,3.9-3.9
			c15.5,1.1,30,2.1,44.6,3.2c2,0.1,3.5,1.8,3.5,3.8l0,15.1c0,2.4-2,4.4-4.4,4.4h-23.4c-2.3,0-4.1,1.8-4.1,4.1L177.1,334.8z"/>
		<path d="M31.3,306.8c-5.8,5-9.1,10.2-9.1,17.3c0.2,15.6-0.4,31.3,0.2,46.9c0.2,4.9,1.2,9.8,3.2,14.3c6.2,13.8,16.2,14.3,22.5,2.9
			c1.3-2.3,2.1-4.8,3.1-7.6c0.7-2.1,3-3.3,5.1-2.8l11.5,2.8c2.6,0.6,4,3.4,3,5.9c-2.9,7.1-5.4,13.7-8.4,20.1
			C57,418.5,43,420.7,33.5,417.9C16.8,412.9,4.5,402.3,2.4,384C0.5,368.1,0.1,352,0,336c0-9.9,1.5-19.8,3-29.6
			c1.9-12.8,10.6-19.6,22.5-21.8c12.8-2.4,24.5,0.9,33.2,11.2c4,4.7,1.8,11.6-5.2,18.6c-4.6,4.6-9,1.8-13.1-0.5
			C37,312,33.5,305.2,31.3,306.8z"/>
		<path d="M298.2,290.9c-0.7-3.2,1.4-6.6,4.7-7c0.2,0,0.3,0,0.5,0c19,0,38,0,57,0.4c6,0.1,8.4,3.6,7.7,9.7c-0.2,1.7-0.2,2.7-0.3,4
			c-1.3,12.4-1.7,12.7-14.3,11c-3.1-0.4-6.1-0.5-9.3-0.8c-1.4-0.4-1,1.6-1,2.2c0.6,32.5,1.1,65,2.2,97.5c0.2,5.2-0.2,7.9-5.8,7.9
			c-2.3,0-4.6,0.6-6.9,0.7c-1.7,0.1-3.3,0.1-5.1,0.1c-2.7,0-4.9-2.1-5.1-4.7c-0.4-4.2-0.7-8.1-0.8-12.1c-0.1-27.9-0.3-55.8,0.1-83.7
			c0.1-6.7-2.8-9.3-8.5-10.5c-3.8-0.8-9.6-0.4-11.1-2.8C300.1,299.3,299.2,295.1,298.2,290.9z"/>
		<path d="M404.4,285.2c-1.1,42.5-2.1,84.2-3.2,127c-0.1,2.5-2.1,4.4-4.5,4.4h-13.1c-2,0-3.6-1.5-3.7-3.5c-0.1-1.7-0.2-3.2-0.2-4.6
			c0-39.4,0.1-75.7-0.1-115.1c0-6.4-1.3-9.7,8.5-10.6C394.6,281.6,404.4,280.5,404.4,285.2z"/>
		<path d="M572.1,182.4c-0.1,0-0.2,0.1-0.3,0.1c-1.8,3.2-3.4,6.5-5.4,9.5c-11.7,17.5-23,35.2-35.6,52c-3.1,4.1-11.3,10.7-15.4,7.9
			c-4.8-4.1-1.2-11.8,0.4-17c2.4-8,6.7-15.5,10.4-23.1c3.8-7.9,8.2-15.6,11.7-23.7c5.3-12.4,4-16.3-7.6-23.5
			c-8.5-5.3-17.4-10-26-14.9c0-0.1-0.1-0.2-0.1-0.2c9.1-32.2,2.7-44.6-13.4-41.8c-8.3,1.2-11,28.3-2.8,43.6c0,0,0,0.1,0.1,0.1
			c1.6,2.2,9.4,8.9,11.6,10.8c15.2,11.8,15.3,13.5,7,29.1c-6.1,11.4-12.5,22.6-17.3,34.5c-3.2,8-5.3,17-5.5,25.6
			c-0.2,17.1,14.2,27.1,30,20.5c8.5-3.6,17.5-9.1,22.8-16.4c14.7-20.2,27.6-41.8,41.1-62.8C581.7,186.4,578,184.1,572.1,182.4z
			 M495.1,139.6c0,0-1.6,3.4-4.5-6.4c-1.6-5.5-0.7-20.1,6.1-15.4C501.1,120.7,496.9,133.8,495.1,139.6z"/>
		<path d="M496.4,161.7c-1.4-1.9-3-3.4-4.7-5c-1.2-1-3.1-0.3-3.3,1.3c-0.3,2.2-0.8,3.9-1.3,5.1c-11.8,29.6-21.6,53.8-41.6,79.1
			c-3.3,4.2-10.1,11.9-14.5,8.9c-4.2-3.5-2.7-12.1-1-17.1c7.3-21.1,16-41.8,23.7-62.7c1.3-3.5,2.4-8,0.5-11
			c-5.1-8.1-10.9-4.2-15.8-1.3c-3.2,1.9-6.5,5.2-9.5,7.9c-0.1,0.1-0.2,0.1-0.3-0.1c-8.7-16.3-21.2-19.5-37.8-8.5
			c-15.6,10.3-24.9,25.6-32.2,42.3c-1.3,3-2.7,5.9-4.2,8.8c-3.3,6-3.3,33.9-3.3,34c1.4,8.9,2,24.1,18,29c14.9,4.6,21.9-4,31-13.3
			c1.2-1.2,1.9-2.8,1.9-4.6c0.2-7.4,0.4-13.5,1-20.8c0.1-0.9-1.1-1.2-1.5-0.5c-2.8,4.9-3.2,6.8-7.8,12c-2.8,3.1-7.6,7.3-12,6
			c-4.7-0.5-6.1-8.8-5.9-13.1c1.1-22,8.5-41.8,23.9-57.9c3-3.2,9.5-5.9,13.1-4.7c3.2,1,7.1,5.5,6.3,10.2
			c-2.8,14.6-6.4,27.9-12.2,39.8c-0.1,0.1-0.1,0.3-0.2,0.5c-0.7,3.4-1.6,25.6-1.7,28.3c0,0.2,0.1,0.5,0.1,0.5
			c6.4,19.7,18.8,24.2,34.1,13c4.3-3.2,8.5-7.1,11.4-11.5c14.9-22.5,25-45.7,37.1-68.8c4.2-8.1,4-8.5,7.9-17.2
			c0-0.1,0.7-1.4,1.3-2.8C497.9,165.6,497.6,163.4,496.4,161.7z"/>
		<path d="M282.2,153.9c-1.1-0.6-2.6,0-2.9,1.3c-1.2,5.3-1.1,4.8-3.4,9.7c-2.7,5.8-29.5,58.1-41.5,77.7c-2.5,4.1-9.3,12.3-13.7,8.7
			c-4.4-3.2-3.1-12.1-1.4-17c7.1-20.8,15.5-41.2,23.4-61.8c1.7-4.6,7.3-9.2-0.2-13.9c-6.6-4.1-12.3-2.7-17.6,2.2
			c-2.1,2-3.8,4.5-5.6,6.9c-0.1,0.1-0.3,0.1-0.4,0c-10.3-17.6-23.3-20.7-39.9-8.5c-20.7,15.2-32.6,36.6-36.5,61.5
			c-1.9,12.3-1.1,25.9,2.4,37.8c4.5,15.4,19,19.2,32.8,10.5c6.1-3.9,4.1-3,9.8-7.7c0,0,0.1-0.1,0.3-0.2c2.3-1.8,3.2-3,3.8-5.8
			c1.5-7,3.1-18.4,2.7-22.4c-0.2-1.8-3.3,1.4-3.7,2.2c-2.7,5.2-1.8,3.8-7.5,10.1c-2.8,3.1-8.5,6.5-12,5.9c-5.8-0.7-6.1-8.8-5.8-13.1
			c1.1-21.9,8.5-41.8,23.9-57.9c3-3.2,9.5-5.8,13.1-4.7c3.3,1,6.9,4.3,6.2,10.2c-2,10.3-4.3,19.9-7.6,28.9c0,0,0,0,0,0
			c-2.9,13.8-7.3,37.1-6.1,40.8c0,0,0,0.1,0,0.1c6.5,19.8,20.1,23.7,36.3,10.5c3.1-2.5,6.2-5.5,8.4-8.8c6.4-9.6,37.6-70.5,49.5-95.9
			c0.4-0.9,0.2-2-0.5-2.8C286.7,156.6,284.8,155.4,282.2,153.9z"/>
		<path d="M122.9,83.4C96.8,72.6,71,76.7,46.7,90.2c-4.5,2.5-6.6,4.2-7.1,9.8c-0.3,3.5,0.8,11.2,6.6,6.3c6.3-5.3,16.7-4.8,23.2-0.9
			c0.7,0.4,1.5,0.3,2.1-0.2c0.5-0.4,1-0.6,1.6-0.8c11.7-4.3,23.6-6.5,35.7-2.1c16,5.7,20.7,21.8,10.2,35.3
			c-11.7,15.1-28.4,21.4-46.5,24.7c-3.5,0.7-8.5,2.1-11.7,1.7c-1.1-0.2-2.3,0.3-3,1.2c-2.8,3.6-3.8,10-3.9,13.3
			c-0.1,1.2,0.9,2.1,2,2.2c1.5,0,3.5,0.2,4.5,0.2c8.3,0.1,16.6,0.2,24.4,2.4c19.7,5.5,26.6,23.5,17.3,42
			c-12.3,24.6-43.8,36-73.3,25.5C35.7,228.6,43,204,50,182.5c0.2-0.6,6.5-20,6.7-20.6c3.3-15,7.3-27.9,10.4-41.5
			c0.3-1.5,0.8-3.2,1.3-4.9c1.2-4.4-1.7-8.9-6.2-9.6c-3.6-0.5-7.6-0.2-11.1,1.1c-3.8,1.4-6.5,4.8-6.9,8.7c-0.5,4.8-2,8.6-3.6,13.9
			C28.9,169.2,17,208.8,5.4,248.4c-3.6,12.4-1.1,17,10.6,22.4c30.8,14.1,73.7,5.5,98.1-19.1c20.7-20.9,29.9-58.2-6.5-78.9
			c9.9-8.3,21.4-15.4,29.8-25.2C156.6,124.9,149.8,94.6,122.9,83.4z"/>
		<path d="M349.5,218.5c-8.6,15.5-18,24.9-32.6,37.3c-0.1,0.1-0.3,0.1-0.4-0.1c-4-7.4-7.7-14.1-11.8-21.8c0-0.1,0-0.2,0.1-0.3
			c4-3.5,8.5-6.4,11.4-10.3c9.2-12.5,18.5-25,26.3-38.3c5.1-8.7,1.8-17.6-6.1-23.5c-5.9-4.5-12.7-7.7-19.2-11.3
			c-6.4-3.5-13-6.6-19.2-9.8c0-0.1-0.1-0.1-0.1-0.2c1.5-6.4,4.2-11.9,3.3-16.7c-0.8-4.3-5.1-8.8-9-11.4c-2.4-1.6-6.6-2.2-10.4,0.5
			c-8.1,5.8-7.4,17.1-5.2,27.8c0.5,2.3,1.8,5.8,5.6,9.2c3.7,3.4,9.5,6.7,9.6,6.8c6.7,3.8,13.6,7.2,19.9,11.4
			c9.9,6.8,11.6,12.5,4.3,22.1c-9.2,12.1-19.6,23.4-30.2,34.4c-4.8,5-5.7,9.3-2.6,15.3c3.9,7.5,6.8,15.5,10.8,23
			c6.1,11.5,4.4,21.1,4.4,21.3c-3.1,31.9-15.8,55.3-39.5,72.4c-3,2.2-8.8,2.8-12.1,1.3c-1.9-0.9-4.8-3.7-2.7-10.5
			c1-3,2.7-6.9,4.3-9.8c10.1-19.1,39.3-45,46.1-50.7c0.9-0.8,1.5-1.9,1.7-3.1c0.3-2.5,0.2-4.5-0.5-6.6c-0.7-2.2-3.4-3.1-5.4-1.8
			c-0.4,0.3-0.9,0.6-1.6,1.1c-13,9.2-24.4,17.7-36.4,28.2c-13.2,11.5-23.8,25.2-27.4,43.1c-3.9,19.6,8.7,34.3,28.5,31.6
			c8.4-1.2,17.3-4.7,24.1-9.8c31.5-23.5,48.4-54.4,45-94.8c-0.3-3.3,0.1-8,2.2-9.8c5.9-5.3,14.4-12.1,19.5-16.1
			c2.9-2.3,4.7-5.7,5-9.4c0.4-6.9,0.9-13,2-20.2C351,218.2,349.9,217.8,349.5,218.5z M287.8,135.1c0,0-1.4,2.3-3.6-4.7
			c-1.3-4-0.2-14.1,5.5-10.3C293.3,122.4,289.4,131.2,287.8,135.1z"/>
	</g>
	<g id="lamp">
		<g>
			<path d="M585.2,178.7c-1.2,0-2.5-0.3-4.4-1l-0.5-0.2c-2-0.7-3-2.8-2.3-4.8c0.7-2,2.8-3,4.8-2.3l0.5,0.2c0.8,0.3,1.6,0.6,1.9,0.6
				c0.3,0,1.4-0.5,2-0.7c-0.2-0.1-0.5-0.1-0.7-0.2c-0.7-0.2-1.4-0.4-2.1-0.6c-1.7-0.4-3.4-0.8-5-1.6c-8-3.8-6.8-8.6-6.2-9.9
				c0.4-1.1,1.5-2.9,3.9-3.6c-3-2.6-3-5.5-2.3-7.7c0.4-1.2,1.4-3.3,4.2-4.1c-0.9-1-1.4-2.2-1.3-3.7c0.1-2.8,1.1-4.9,2.8-6.3
				c1.6-1.3,3.6-1.8,6-1.5c-0.5-1-0.7-2.1-0.8-3.3c-0.2-2.9,0.5-4.3,1.4-5.9c0.3-0.5,0.5-0.9,0.8-1.6c0.3-1,0.4-2.1,0.4-3.3
				c0.1-1,0.1-2,0.3-3c0.5-2.4,0.7-4.3,0.7-6c0-0.5,0-1,0-1.5c0-1.7,0.1-3.2-0.2-4.4c-0.3-1.1-0.7-2.2-1.1-3.3
				c-0.3-0.9-0.7-1.9-1-2.9c-0.7-2.6-1.1-5.1-1.2-7.7c0-2.2,0-4.8,0.8-7.8c0.4-1.6,1.1-3,1.8-4.4c0.4-0.8,0.8-1.6,1.1-2.4
				c0.3-0.8,0.6-1.7,0.9-2.6c0.6-1.7,1.1-3.4,2.1-5c1.4-2.2,3-3.9,4.5-5.4c0.3-0.3,0.7-0.7,1-1c1.8-1.9,3.9-4.1,6.4-5.7
				c2.4-1.6,4.9-2.4,7.1-3.1l0.7-0.2c2.8-1,5.6-1.6,8.2-1.9c3.2-0.3,6.1-0.2,8.3,0c0.6,0.1,1.2,0.1,1.8,0.1c1.7,0.1,3.8,0.1,5.9,0.7
				c2,0.6,3.9,1.5,5.6,2.5c0.5,0.3,1,0.5,1.5,0.8c2.4,1.2,4.6,2.6,6.6,4.3c1.9,1.5,3.3,3.4,4.7,5.2l0.5,0.6c0.4,0.5,0.8,1,1.4,1.5
				c1.2,1.3,2.5,2.7,3.5,4.6c1.2,2.3,2.2,4.8,2.9,7.2c0.7,2.2,1,4.3,1.2,6.2c0.1,0.6,0.2,1.2,0.2,1.8c0.4,2.6,0.3,5,0.1,7.1
				l-0.1,1.1c-0.2,2.9-0.4,5.6-1.2,8.3c-0.9,2.7-1.8,5.3-3.4,7.8c-1.5,2.3-3.5,4-5.4,5.7l-0.4,0.4c-1.9,1.7-4.1,3.3-6.6,4.8
				c-0.6,0.4-1.2,0.8-1.8,1.2c-1.5,1-3.2,2.1-5.1,2.9c-1.4,0.6-2.7,1-3.8,1.4c-1.3,0.4-2.5,0.8-3.3,1.3c-1.8,1-2.9,2.1-4.1,3.4
				c-0.4,0.4-0.7,0.7-1.1,1.1l-0.7,0.6c-1.6,1.5-2.9,2.8-4.1,4.5c-1.5,2.2-3,4.3-4.7,6.6c-1.2,1.7-3.3,3.5-6.4,4.1
				c0.4,0.6,0.8,1.2,1,1.9c0.4,1.3,0.5,3.3-1.1,5.6c-1.6,2.3-3.9,3.6-6.6,3.9c2,2.4,1.6,5.1,1,6.8c-1.7,4.7-6.2,4.2-9.2,3.4
				c0,0.7-0.1,1.4-0.5,2c-1.9,3.6-4.2,5.9-6.8,7C588.1,178.2,586.7,178.7,585.2,178.7z M606.5,151.3L606.5,151.3L606.5,151.3z
				 M602.2,150.1c0.7,0.2,1.3,0.4,1.9,0.5c0.5,0.1,1,0.1,1.3,0c-0.6-0.2-1.6-0.4-2.7-0.5C602.5,150.1,602.3,150.1,602.2,150.1z
				 M607.2,138.8c0.8,0.3,1.6,0.5,2.3,0.6c2.2,0.3,2.9-0.5,3.5-1.2c1.6-2.2,3-4.2,4.5-6.3c1.6-2.5,3.4-4.2,5.2-5.8l0.7-0.6
				c0.3-0.3,0.6-0.6,0.9-0.9c1.4-1.4,3.2-3.2,5.9-4.7c1.4-0.8,2.9-1.3,4.5-1.8c1.1-0.4,2.2-0.7,3.3-1.2c1.3-0.5,2.5-1.4,3.9-2.2
				c0.7-0.5,1.4-0.9,2.1-1.4c2.1-1.3,3.9-2.6,5.4-4l0.4-0.4c1.6-1.5,3.1-2.8,4.1-4.3c1.1-1.7,1.8-3.7,2.5-5.9c0.6-1.9,0.7-4,0.9-6.4
				l0.1-1.2c0.1-1.9,0.2-3.7-0.1-5.5c-0.1-0.6-0.2-1.3-0.3-2c-0.2-1.7-0.4-3.4-0.9-4.9c-0.6-2-1.5-4-2.5-6c-0.5-1-1.4-1.9-2.3-2.9
				c-0.6-0.6-1.2-1.3-1.8-2l-0.5-0.6c-1.3-1.6-2.4-3-3.6-4c-1.6-1.3-3.3-2.4-5.2-3.4c-0.6-0.3-1.1-0.6-1.7-0.9
				c-1.5-0.8-2.9-1.5-4.1-1.9c-1.3-0.4-2.8-0.4-4.2-0.5c-0.8,0-1.5-0.1-2.2-0.1c-2-0.2-4.3-0.3-6.9,0c-2,0.2-4.2,0.7-6.6,1.5
				l-0.8,0.3c-2,0.7-3.8,1.3-5.4,2.3c-1.6,1-3.1,2.5-5,4.5c-0.3,0.4-0.7,0.7-1.1,1.1c-1.2,1.3-2.5,2.6-3.5,4.1
				c-0.5,0.9-0.9,2.1-1.4,3.4c-0.3,1-0.7,2.1-1.1,3.2c-0.4,1.1-0.9,2-1.4,2.9c-0.6,1.1-1,2-1.2,2.8c-0.5,2-0.6,3.8-0.5,5.8
				c0,1.9,0.3,3.8,0.9,5.8c0.2,0.7,0.5,1.5,0.8,2.4c0.5,1.3,1,2.7,1.4,4.3c0.5,2,0.4,4,0.4,6.2c0,0.5,0,0.9,0,1.4
				c0,2.1-0.3,4.5-0.8,7.4c-0.1,0.5-0.1,1.3-0.2,2c-0.1,1.5-0.2,3.3-0.8,5.2c0,0.1-0.1,0.2-0.1,0.3c-0.5,1.2-1,2-1.3,2.6
				c-0.5,0.9-0.5,0.9-0.4,1.8c0,0.5,0.2,1.1,1.3,1.5c1.3,0.5,2.6,1.1,3.7,1.6c1.2,0.5,2.3,1.1,3.3,1.4c1.6,0.5,2.1,0.5,3.3-0.6
				c1.4-1.4,2.8-3.1,3.9-5.3c1.4-2.7,3-4.8,4.8-6.6c1.4-1.4,2.9-2.7,4.4-3.9c0.4-0.4,0.9-0.7,1.3-1.1c0.7-0.6,1.4-1.2,2.1-1.8
				c1.2-1,2.4-2.1,3.6-3c3.5-2.5,6.2-4,6.4-4.1c1.8-1,4.1-0.3,5.1,1.5c1,1.8,0.3,4.1-1.5,5.1c0,0-2.4,1.4-5.6,3.6
				c-0.9,0.7-2,1.6-3,2.5c-0.7,0.6-1.5,1.3-2.3,2c-0.5,0.4-0.9,0.7-1.4,1.1c-1.4,1.1-2.7,2.2-3.8,3.3c-1.3,1.3-2.4,2.9-3.5,5
				c-1.6,2.9-3.4,5.3-5.4,7.2C609,137.7,608.1,138.3,607.2,138.8z"/>
		</g>
		<g>
			<path d="M543.8,99.5c-0.7,0-1.1-0.1-1.5-0.1c-0.3-0.1-0.6-0.1-1.1-0.1c-1.2,0.1-2.3-0.9-2.4-2.1c-0.1-1.2,0.9-2.3,2.1-2.4
				c1.1-0.1,1.6,0,2.1,0.1c0.3,0.1,0.6,0.1,1.1,0.1c0.6,0,0.8-0.1,1.2-0.2c0.4-0.1,1-0.2,2-0.3c0.8,0,1.2-0.1,1.7-0.1
				c0.4,0,0.8,0,1.5-0.1c0.9-0.1,1.4,0,1.9,0c0.3,0,0.7,0,1.3,0c0.7,0,1-0.1,1.4-0.2c0.5-0.1,0.9-0.2,1.8-0.2c0.6,0,0.8-0.1,1.1-0.2
				c0.5-0.1,1-0.3,2-0.3c0.7,0,1.1-0.1,1.5-0.1c0.4,0,0.8-0.1,1.7-0.1c1.1-0.1,1.7,0.1,2.4,0.3c0.3,0.1,0.4,0.1,0.9,0.1l3.2-0.2
				c0.6,0,0.8-0.1,1.1-0.2c0.5-0.1,1-0.3,2-0.3c0.8,0,1.2-0.1,1.6-0.1c0.4,0,0.8,0,1.5-0.1c0.7,0,1.1-0.1,1.5-0.1
				c0.4-0.1,0.9-0.1,1.7-0.2c1.3-0.1,2.3,0.9,2.4,2.1c0.1,1.2-0.9,2.3-2.1,2.4c-0.7,0-1.1,0.1-1.5,0.1c-0.4,0.1-0.9,0.1-1.7,0.2
				c-0.8,0-1.2,0.1-1.6,0.1c-0.4,0-0.8,0-1.6,0.1c-0.6,0-0.8,0.1-1.1,0.2c-0.5,0.1-1,0.3-2,0.3l-3.2,0.2c-1.1,0.1-1.7-0.1-2.4-0.3
				c-0.3-0.1-0.4-0.1-0.9-0.1c-0.7,0-1.1,0.1-1.5,0.1c-0.4,0-0.8,0.1-1.7,0.1c-0.6,0-0.8,0.1-1.1,0.2c-0.5,0.1-1,0.3-2,0.3
				c-0.7,0-1,0.1-1.4,0.2c-0.5,0.1-0.9,0.2-1.8,0.2c-0.9,0.1-1.4,0-1.9,0c-0.3,0-0.7,0-1.3,0c-0.8,0-1.2,0.1-1.7,0.1
				c-0.4,0-0.8,0-1.5,0.1c-0.6,0-0.8,0.1-1.2,0.2c-0.4,0.1-1,0.2-2,0.3C544.2,99.5,544,99.5,543.8,99.5z"/>
		</g>
		<g>
			<path d="M579.3,80.6c-0.4,0-0.7,0-1.1-0.1c-0.6-0.1-1.4-0.1-2.3-0.2l-1.1-0.1c-0.7,0-1.5-0.1-2.2-0.1l-1.4-0.1
				c-0.6,0-1.3-0.1-1.9-0.1c-0.6,0-1.2-0.1-1.7-0.1c-0.6,0-1.1-0.1-1.7-0.1c-1.9-0.2-3.3-0.2-3.3-0.2c-1.2-0.1-2.2-1.1-2.2-2.4
				c0.1-1.2,1.1-2.2,2.4-2.2c0,0,1.5,0.1,3.5,0.2c0.5,0,1,0.1,1.6,0.1c0.6,0,1.2,0.1,1.8,0.1c0.6,0,1.2,0.1,1.9,0.1l1.5,0.1
				c0.7,0.1,1.5,0.1,2.2,0.1l1.2,0.1c1,0.1,1.8,0.1,2.5,0.2c0.2,0,0.5,0,0.6,0.1c0.4,0,0.7,0,1.1,0.1c1.2,0.5,1.7,1.8,1.3,2.9
				C581.2,80.4,580.3,80.6,579.3,80.6z M577.4,77.5C577.4,77.5,577.4,77.5,577.4,77.5C577.4,77.5,577.4,77.5,577.4,77.5z M577.7,77
				c-0.1,0.1-0.2,0.3-0.3,0.5C577.5,77.3,577.6,77.2,577.7,77z"/>
		</g>
		<g>
			<path d="M585.4,66.5c-0.4,0-0.8-0.1-1.1-0.3c-0.9-0.5-1.3-0.9-1.7-1.2c-0.3-0.2-0.5-0.4-1-0.7c-0.6-0.3-0.9-0.5-1.2-0.6
				c-0.4-0.2-0.9-0.4-1.7-0.8c-0.9-0.5-1.3-0.8-1.6-1.1c-0.3-0.2-0.5-0.4-1-0.7c-0.6-0.3-0.8-0.4-1.2-0.6c-0.4-0.2-0.9-0.4-1.7-0.8
				c-0.4-0.3-0.6-0.3-1-0.4c-0.5-0.1-1.1-0.3-2-0.8c-1.1-0.6-1.5-1.2-1.9-1.6c-0.2-0.3-0.3-0.3-0.6-0.5c-0.7-0.4-1-0.6-1.3-0.7
				c-0.4-0.2-0.8-0.4-1.5-0.8c-0.7-0.4-1-0.6-1.3-0.7c-0.4-0.2-0.7-0.4-1.5-0.8c-0.6-0.4-1-0.5-1.3-0.7c-0.4-0.2-0.8-0.4-1.5-0.8
				c-0.7-0.4-1.1-0.6-1.4-0.8c-0.3-0.2-0.7-0.4-1.3-0.8c-0.5-0.3-0.7-0.4-1.1-0.5c-0.4-0.1-1-0.3-1.9-0.8l-2.8-1.6
				c-1-0.6-1.5-1.1-1.8-1.5c-0.2-0.2-0.3-0.4-0.7-0.6c-1.1-0.6-1.5-2-0.8-3.1c0.6-1.1,2-1.5,3.1-0.8c1,0.6,1.5,1.1,1.8,1.5
				c0.2,0.2,0.3,0.4,0.7,0.6l2.8,1.6c0.5,0.3,0.7,0.4,1.1,0.5c0.4,0.1,1,0.3,1.9,0.8c0.7,0.4,1.1,0.6,1.4,0.8
				c0.3,0.2,0.7,0.4,1.3,0.8c0.6,0.4,1,0.5,1.3,0.7c0.4,0.2,0.8,0.4,1.5,0.8c0.7,0.4,1,0.6,1.3,0.7c0.4,0.2,0.7,0.4,1.5,0.8
				c0.7,0.4,1,0.6,1.3,0.7c0.4,0.2,0.8,0.4,1.5,0.8c1.1,0.6,1.5,1.2,1.9,1.6c0.2,0.3,0.3,0.3,0.6,0.5c0.4,0.3,0.6,0.3,1,0.4
				c0.5,0.1,1.1,0.3,2,0.8c0.6,0.3,0.8,0.4,1.2,0.6c0.4,0.2,0.9,0.4,1.7,0.8c0.9,0.5,1.3,0.8,1.6,1.1c0.3,0.2,0.5,0.4,1,0.7
				c0.6,0.3,0.9,0.5,1.2,0.6c0.4,0.2,0.9,0.4,1.7,0.8c0.9,0.5,1.3,0.9,1.7,1.2c0.3,0.2,0.5,0.4,1,0.7c1.1,0.6,1.5,2,0.8,3.1
				C586.9,66.1,586.1,66.5,585.4,66.5z"/>
		</g>
		<g>
			<path d="M593.1,51.6c-0.6,0-1.2-0.2-1.6-0.7c-0.6-0.6-0.9-1-1.2-1.3c-0.3-0.3-0.6-0.6-1.2-1.2c-0.7-0.7-1-1.1-1.3-1.5
				c-0.2-0.3-0.4-0.6-0.9-1.1c-0.5-0.6-0.8-0.8-1.1-1.1c-0.3-0.3-0.7-0.6-1.3-1.3c-0.6-0.7-0.9-1-1.2-1.4c-0.3-0.3-0.5-0.6-1.1-1.2
				c-0.6-0.6-0.9-0.9-1.2-1.2c-0.3-0.3-0.6-0.6-1.3-1.3c-0.9-0.9-0.8-2.3,0.1-3.2c0.9-0.9,2.3-0.8,3.2,0.1c0.6,0.6,0.9,0.9,1.2,1.2
				c0.3,0.3,0.6,0.6,1.3,1.3c0.6,0.7,0.9,1,1.2,1.4c0.3,0.3,0.5,0.6,1.1,1.2c0.5,0.6,0.8,0.8,1.1,1.1c0.3,0.3,0.7,0.6,1.3,1.3
				c0.7,0.7,1,1.1,1.3,1.5c0.2,0.3,0.4,0.6,0.9,1.1c0.6,0.6,0.9,1,1.2,1.3c0.3,0.3,0.6,0.6,1.2,1.2c0.9,0.9,0.8,2.3-0.1,3.2
				C594.2,51.4,593.6,51.6,593.1,51.6z"/>
		</g>
		<g>
			<path d="M608.2,44.1c-0.8,0-1.6-0.5-2-1.2c-0.4-0.8-0.6-1.2-0.7-1.6c-0.1-0.3-0.3-0.7-0.6-1.3c-0.3-0.6-0.5-1-0.7-1.3
				c-0.2-0.4-0.5-0.8-0.9-1.6c-0.4-0.8-0.6-1.3-0.7-1.7c-0.1-0.3-0.3-0.7-0.6-1.3c-0.5-0.9-0.6-1.5-0.7-1.9
				c-0.1-0.3-0.2-0.6-0.4-1.1c-0.2-0.4-0.3-0.5-0.6-0.8c-0.4-0.4-0.9-0.9-1.4-1.9c-0.4-0.8-0.6-1.2-0.7-1.5
				c-0.2-0.3-0.3-0.7-0.7-1.4c-0.5-1.1-0.6-1.8-0.7-2.3c0-0.3-0.1-0.5-0.3-0.9c-0.3-0.5-0.4-0.7-0.6-1c-0.3-0.4-0.6-0.8-1.1-1.7
				c-0.5-0.9-0.6-1.4-0.7-1.9c-0.1-0.4-0.2-0.6-0.5-1.2c-0.3-0.6-0.5-0.9-0.7-1.2c-0.3-0.4-0.5-0.8-0.9-1.6
				c-0.4-0.9-0.6-1.4-0.7-1.8c-0.1-0.3-0.2-0.6-0.5-1.2c-0.3-0.6-0.5-0.8-0.7-1.1c-0.3-0.4-0.6-0.8-1-1.7c-0.6-1.1-0.1-2.5,1-3
				c1.1-0.6,2.5-0.1,3,1c0.3,0.6,0.5,0.8,0.7,1.1c0.3,0.4,0.6,0.8,1,1.7c0.4,0.9,0.6,1.4,0.7,1.8c0.1,0.3,0.2,0.6,0.5,1.2
				c0.3,0.6,0.5,0.9,0.7,1.2c0.3,0.4,0.5,0.8,0.9,1.6c0.5,0.9,0.6,1.4,0.7,1.9c0.1,0.4,0.2,0.6,0.5,1.2c0.3,0.5,0.4,0.7,0.6,1
				c0.3,0.4,0.6,0.8,1.1,1.7c0.5,1.1,0.6,1.8,0.7,2.3c0,0.3,0.1,0.5,0.3,0.9c0.4,0.8,0.6,1.2,0.7,1.5c0.2,0.4,0.3,0.7,0.7,1.4
				c0.2,0.4,0.3,0.5,0.6,0.8c0.4,0.4,0.9,0.9,1.4,1.9c0.5,0.9,0.6,1.5,0.7,1.9c0.1,0.3,0.2,0.6,0.4,1.1c0.4,0.8,0.6,1.3,0.7,1.7
				c0.1,0.3,0.3,0.7,0.6,1.3c0.3,0.6,0.5,0.9,0.7,1.3c0.2,0.4,0.5,0.8,0.9,1.6c0.4,0.8,0.6,1.2,0.7,1.6c0.1,0.3,0.3,0.7,0.6,1.3
				c0.6,1.1,0.1,2.5-1,3C608.9,44,608.6,44.1,608.2,44.1z"/>
		</g>
		<g>
			<path d="M622.7,41.8c-1.1,0-2.1-0.9-2.3-2c-0.1-0.8-0.1-1.2-0.1-1.6c0-0.4,0-0.7-0.1-1.4c-0.1-0.7-0.1-1.1-0.2-1.4
				c-0.1-0.4-0.1-0.8-0.2-1.6c-0.1-0.8-0.1-1.2-0.1-1.6c0-0.4-0.1-0.7-0.1-1.5c-0.1-0.7-0.1-1.1-0.2-1.4c-0.1-0.4-0.1-0.8-0.2-1.6
				c-0.1-0.8-0.1-1.2-0.1-1.6c0-0.4,0-0.7-0.1-1.4c-0.1-1.2,0.8-2.4,2-2.5c1.2-0.1,2.4,0.8,2.5,2c0.1,0.8,0.1,1.2,0.1,1.6
				c0,0.4,0,0.7,0.1,1.4c0.1,0.7,0.1,1.1,0.2,1.4c0.1,0.4,0.1,0.8,0.2,1.6c0.1,0.8,0.1,1.2,0.1,1.6c0,0.4,0.1,0.7,0.1,1.5
				c0.1,0.7,0.1,1.1,0.2,1.4c0.1,0.4,0.1,0.8,0.2,1.6c0.1,0.8,0.1,1.2,0.1,1.6c0,0.4,0,0.7,0.1,1.4c0.1,1.2-0.8,2.4-2,2.5
				C622.8,41.8,622.7,41.8,622.7,41.8z"/>
		</g>
		<g>
			<path d="M638.9,42.6c-0.2,0-0.3,0-0.5,0c-1.2-0.3-2-1.4-1.8-2.7c0.1-0.4,0.1-0.5,0-0.8c-0.1-0.7-0.2-1.3,0-2.4
				c0.2-1.1,0.5-1.7,0.9-2.2c0.2-0.3,0.2-0.4,0.3-0.8c0.1-0.4,0.1-0.6,0-0.9c-0.1-0.5-0.1-1.2,0.1-2.4c0.2-0.8,0.2-1.1,0.3-1.5
				c0.1-0.4,0.1-0.8,0.3-1.7c0.2-0.8,0.3-1.2,0.3-1.6c0.1-0.4,0.2-0.8,0.3-1.5c0.2-0.9,0.4-1.4,0.5-1.8c0.1-0.4,0.2-0.6,0.3-1.3
				c0.1-0.7,0.2-1.1,0.2-1.4c0.1-0.4,0.1-0.9,0.3-1.8c0.2-0.9,0.3-1.3,0.4-1.7c0.1-0.4,0.2-0.7,0.3-1.4c0.1-0.7,0.2-1,0.2-1.4
				c0.1-0.5,0.1-0.9,0.3-1.8c0.2-0.9,0.3-1.4,0.5-1.8c0.1-0.3,0.2-0.7,0.3-1.3c0.2-1,0.4-1.6,0.6-2c0.1-0.3,0.2-0.5,0.4-1.1
				c0.1-0.4,0.1-0.5,0-0.9c-0.1-0.7-0.2-1.3,0.1-2.4c0.3-1.2,1.4-2,2.7-1.8c1.2,0.3,2,1.4,1.8,2.7c-0.1,0.4-0.1,0.5,0,0.9
				c0.1,0.7,0.2,1.3-0.1,2.4c-0.2,1-0.4,1.6-0.6,2c-0.1,0.3-0.2,0.5-0.4,1.1c-0.2,0.9-0.3,1.4-0.5,1.8c-0.1,0.3-0.2,0.7-0.3,1.3
				c-0.1,0.7-0.2,1-0.2,1.4c-0.1,0.5-0.1,0.9-0.3,1.8c-0.2,0.9-0.3,1.3-0.4,1.7c-0.1,0.4-0.2,0.7-0.3,1.4c-0.1,0.7-0.2,1.1-0.2,1.4
				c-0.1,0.4-0.1,0.9-0.3,1.8c-0.2,0.9-0.4,1.4-0.5,1.8c-0.1,0.4-0.2,0.6-0.3,1.3c-0.2,0.8-0.3,1.2-0.3,1.6
				c-0.1,0.4-0.2,0.8-0.3,1.5c-0.2,0.8-0.2,1.1-0.3,1.5c-0.1,0.4-0.1,0.8-0.3,1.7c-0.1,0.4-0.1,0.6,0,0.9c0.1,0.5,0.1,1.2-0.1,2.4
				c-0.2,1.1-0.5,1.7-0.9,2.2c-0.2,0.3-0.2,0.4-0.3,0.8c-0.1,0.4-0.1,0.5,0,0.8c0.1,0.7,0.2,1.3,0,2.4
				C640.9,41.9,639.9,42.6,638.9,42.6z"/>
		</g>
		<g>
			<path d="M652.1,46.9c-0.4,0-0.8-0.1-1.1-0.3c-1.1-0.6-1.5-2-0.8-3.1c0.5-0.8,0.7-1.2,1-1.6c0.2-0.3,0.4-0.6,0.8-1.3
				c0.3-0.6,0.5-0.9,0.6-1.2c0.2-0.4,0.4-0.9,0.9-1.7c0.5-0.9,0.8-1.3,1.1-1.6c0.2-0.3,0.4-0.5,0.8-1.1c0.3-0.6,0.5-0.9,0.6-1.2
				c0.2-0.4,0.4-0.9,0.9-1.8c0.5-0.8,0.8-1.3,1.1-1.6c0.2-0.3,0.4-0.6,0.8-1.2c0.6-1.1,2-1.5,3.1-0.8c1.1,0.6,1.5,2,0.8,3.1
				c-0.5,0.8-0.8,1.3-1.1,1.6c-0.2,0.3-0.4,0.6-0.8,1.2c-0.3,0.6-0.5,0.9-0.6,1.2c-0.2,0.4-0.4,0.9-0.9,1.8
				c-0.5,0.9-0.8,1.3-1.1,1.6c-0.2,0.3-0.4,0.5-0.8,1.1c-0.3,0.6-0.5,0.9-0.6,1.2c-0.2,0.4-0.4,0.9-0.9,1.7c-0.5,0.8-0.7,1.2-1,1.6
				c-0.2,0.3-0.4,0.6-0.8,1.3C653.7,46.5,652.9,46.9,652.1,46.9z"/>
		</g>
		<g>
			<path d="M662.9,59.4c-0.7,0-1.5-0.4-1.9-1c-0.7-1-0.4-2.4,0.7-3.1c0.6-0.4,0.9-0.6,1.2-0.9c0.4-0.3,0.7-0.5,1.5-1
				c0.6-0.4,0.9-0.6,1.2-0.8c0.4-0.3,0.7-0.6,1.5-1.1c1.1-0.7,2-0.8,2.5-0.9c0.3,0,0.4-0.1,0.6-0.2c0.3-0.2,0.3-0.2,0.5-0.5
				c0.3-0.5,0.7-1.2,1.8-1.9c0.9-0.6,1.5-0.8,2-1c0.3-0.1,0.5-0.2,1-0.5c0.5-0.4,0.8-0.5,1-0.8c0.3-0.3,0.7-0.7,1.6-1.2
				c0.9-0.6,1.5-0.8,1.9-1c0.3-0.1,0.5-0.2,1-0.5c0.4-0.2,0.4-0.3,0.6-0.6c0.4-0.5,0.8-1.1,1.8-1.7c1.1-0.7,1.9-0.8,2.4-0.9
				c0.3-0.1,0.4-0.1,0.7-0.3c0.3-0.2,0.4-0.3,0.6-0.6c0.3-0.4,0.8-1.1,1.8-1.8c0.9-0.6,1.6-0.8,2.3-1c0.3-0.1,0.5-0.1,0.8-0.3
				c0.4-0.2,0.4-0.3,0.7-0.6c0.4-0.5,0.8-1,1.8-1.7c0.7-0.4,1-0.7,1.3-0.9c0.4-0.2,0.7-0.5,1.4-1c0.7-0.5,1.1-0.7,1.4-0.9
				c0.3-0.2,0.7-0.4,1.3-0.9c0.8-0.5,1.3-0.8,1.7-1c0.3-0.2,0.6-0.3,1.2-0.7c1-0.7,2.4-0.4,3.1,0.7c0.7,1,0.4,2.4-0.7,3.1
				c-0.8,0.5-1.3,0.8-1.7,1c-0.3,0.2-0.6,0.3-1.2,0.7c-0.7,0.5-1.1,0.7-1.4,0.9c-0.3,0.2-0.7,0.4-1.3,0.9c-0.7,0.4-1,0.7-1.3,0.9
				c-0.3,0.2-0.7,0.5-1.4,1c-0.4,0.2-0.4,0.3-0.7,0.6c-0.4,0.5-0.8,1-1.8,1.7c-0.9,0.6-1.6,0.8-2.3,1c-0.3,0.1-0.5,0.1-0.8,0.3
				c-0.3,0.2-0.4,0.3-0.6,0.6c-0.3,0.4-0.8,1.1-1.8,1.8c-1.1,0.7-1.9,0.8-2.4,0.9c-0.3,0.1-0.4,0.1-0.7,0.3
				c-0.4,0.2-0.4,0.3-0.6,0.6c-0.4,0.5-0.8,1.1-1.8,1.7c-0.9,0.6-1.5,0.8-1.9,1c-0.3,0.1-0.5,0.2-1,0.5c-0.5,0.4-0.8,0.5-1,0.8
				c-0.3,0.3-0.7,0.7-1.6,1.2c-0.9,0.6-1.5,0.8-2,1c-0.3,0.1-0.5,0.2-1,0.5c-0.3,0.2-0.3,0.2-0.5,0.5c-0.3,0.5-0.7,1.2-1.8,1.9
				c-1.1,0.7-2,0.8-2.5,0.9c-0.3,0-0.4,0.1-0.6,0.2c-0.6,0.4-0.9,0.6-1.2,0.8c-0.4,0.3-0.7,0.6-1.5,1.1c-0.6,0.4-0.9,0.6-1.2,0.8
				c-0.4,0.3-0.7,0.5-1.5,1C663.8,59.3,663.4,59.4,662.9,59.4z"/>
		</g>
		<g>
			<path d="M671.1,71.7c-0.9,0-1.8-0.6-2.1-1.5c-0.4-1.2,0.2-2.5,1.4-2.9c0.8-0.3,1.2-0.4,1.7-0.5c0.4-0.1,0.8-0.2,1.5-0.5
				c0.8-0.3,1.2-0.4,1.6-0.5c0.4-0.1,0.8-0.3,1.6-0.5c0.7-0.3,1.1-0.4,1.5-0.5c0.4-0.2,0.8-0.3,1.7-0.6c0.8-0.3,1.1-0.4,1.5-0.5
				c0.4-0.2,0.8-0.3,1.6-0.6c0.8-0.3,1.1-0.4,1.5-0.5c0.4-0.2,0.8-0.3,1.6-0.6c1.2-0.4,2.5,0.2,2.9,1.4c0.4,1.2-0.2,2.5-1.4,2.9
				c-0.8,0.3-1.1,0.4-1.5,0.5c-0.4,0.2-0.8,0.3-1.6,0.6c-0.8,0.3-1.1,0.4-1.5,0.5c-0.4,0.2-0.8,0.3-1.6,0.6
				c-0.8,0.3-1.1,0.4-1.5,0.5c-0.4,0.2-0.8,0.3-1.6,0.6c-0.8,0.3-1.2,0.4-1.6,0.5c-0.4,0.1-0.8,0.3-1.6,0.5
				c-0.8,0.3-1.3,0.4-1.7,0.5c-0.4,0.1-0.8,0.2-1.5,0.5C671.6,71.7,671.4,71.7,671.1,71.7z"/>
		</g>
		<g>
			<path d="M710,86.4c-1.4,0-2.2-0.4-2.7-0.7c-0.3-0.2-0.4-0.2-0.7-0.2c-0.7,0-1.1,0-1.4,0.1c-0.5,0-0.9,0.1-1.9,0.1
				c-0.7,0-1.1,0-1.5,0.1c-0.5,0-0.9,0.1-1.8,0.1c-0.7,0-1.1,0-1.4,0.1c-0.5,0-0.9,0.1-1.9,0.1c-0.9,0-1.3,0-1.7,0
				c-0.4,0-0.8,0-1.6,0c-0.9,0-1.4,0-1.9-0.1c-0.4,0-0.7-0.1-1.4-0.1c-0.7,0-1,0-1.3,0.1c-0.5,0.1-1,0.1-2,0.1
				c-1.2,0-1.8-0.2-2.3-0.3c-0.3-0.1-0.5-0.2-1-0.2c-0.4,0-0.5,0-0.8,0.2c-0.5,0.2-1.3,0.5-2.6,0.5c-0.9,0-1.4,0-1.8-0.1
				c-0.4,0-0.8,0-1.5,0c-0.9,0-1.4,0-1.8-0.1c-0.4,0-0.8-0.1-1.5-0.1c-1.3,0-2.3-1-2.3-2.3s1-2.3,2.3-2.3c0.9,0,1.4,0,1.8,0.1
				c0.4,0,0.8,0.1,1.5,0.1c0.9,0,1.4,0,1.8,0.1c0.4,0,0.8,0,1.5,0c0.4,0,0.5,0,0.8-0.2c0.5-0.2,1.3-0.5,2.6-0.5
				c1.2,0,1.8,0.2,2.3,0.3c0.3,0.1,0.5,0.2,1,0.2c0.7,0,1,0,1.3-0.1c0.5-0.1,1-0.1,2-0.1c0.9,0,1.4,0,1.9,0.1c0.4,0,0.7,0.1,1.4,0.1
				c0.9,0,1.3,0,1.7,0c0.4,0,0.8,0,1.6,0c0.7,0,1.1,0,1.4-0.1c0.5,0,0.9-0.1,1.9-0.1c0.7,0,1.1,0,1.5-0.1c0.5,0,0.9-0.1,1.8-0.1
				c0.7,0,1.1,0,1.4-0.1c0.5,0,0.9-0.1,1.9-0.1c1.4,0,2.2,0.4,2.7,0.7c0.3,0.2,0.4,0.2,0.7,0.2c0.3,0,0.4,0,0.7-0.2
				c0.5-0.3,1.3-0.6,2.7-0.6c1.1,0,1.8,0.2,2.2,0.3c0.3,0.1,0.6,0.1,1.1,0.1c1.3,0,2.3,1,2.3,2.3s-1,2.3-2.3,2.3
				c-1.1,0-1.8-0.2-2.2-0.3c-0.3-0.1-0.6-0.1-1.1-0.1c-0.3,0-0.4,0-0.7,0.2C712.1,86,711.3,86.4,710,86.4z"/>
		</g>
		<g>
			<path d="M686.9,103.2c-0.2,0-0.4,0-0.6-0.1c-0.9-0.2-1.3-0.4-1.7-0.5c-0.4-0.1-0.8-0.2-1.6-0.4c-0.9-0.2-1.3-0.4-1.7-0.5
				c-0.4-0.1-0.8-0.2-1.6-0.4c-0.9-0.2-1.3-0.3-1.7-0.5c-0.4-0.1-0.8-0.2-1.7-0.4c-0.9-0.2-1.3-0.4-1.8-0.5
				c-0.4-0.1-0.8-0.2-1.6-0.5c-1.2-0.3-1.9-1.6-1.6-2.8c0.3-1.2,1.6-1.9,2.8-1.6c0.9,0.2,1.3,0.4,1.8,0.5c0.4,0.1,0.8,0.2,1.6,0.5
				c0.9,0.2,1.3,0.3,1.7,0.5c0.4,0.1,0.8,0.2,1.7,0.4c0.9,0.2,1.3,0.4,1.7,0.5c0.4,0.1,0.8,0.2,1.7,0.4c0.9,0.2,1.3,0.3,1.7,0.5
				c0.4,0.1,0.8,0.2,1.7,0.4c1.2,0.3,1.9,1.6,1.6,2.8C688.9,102.5,687.9,103.2,686.9,103.2z"/>
		</g>
		<g>
			<path d="M706.4,137.8c-0.4,0-0.8-0.1-1.2-0.4c-0.7-0.5-1.1-0.7-1.4-0.9c-0.3-0.2-0.6-0.4-1.3-0.8c-0.8-0.5-1.1-0.8-1.5-1.1
				c-0.3-0.2-0.6-0.4-1.2-0.8c-0.6-0.4-0.8-0.5-1.2-0.6c-0.4-0.2-0.9-0.4-1.7-0.9c-0.9-0.6-1.4-1.1-1.7-1.4
				c-0.2-0.3-0.4-0.4-0.8-0.7c-0.3-0.2-0.4-0.2-0.8-0.3c-0.5-0.1-1.3-0.3-2.3-0.9c-0.7-0.5-1.1-0.7-1.4-1c-0.3-0.2-0.6-0.4-1.2-0.8
				c-0.7-0.5-1.1-0.7-1.4-1c-0.3-0.2-0.6-0.4-1.2-0.8c-0.7-0.5-1.1-0.7-1.4-1c-0.3-0.2-0.6-0.4-1.3-0.8c-0.8-0.5-1.2-0.8-1.5-1.1
				c-0.3-0.2-0.5-0.4-1.1-0.8l-2.7-1.7c-0.8-0.5-1.1-0.8-1.5-1.1c-0.3-0.2-0.6-0.4-1.1-0.8c-0.4-0.3-0.6-0.3-0.9-0.4
				c-0.5-0.1-1.1-0.3-2.1-0.9l-2.7-1.7c-0.5-0.3-0.8-0.4-1.1-0.6c-0.4-0.2-0.9-0.4-1.7-0.9c-1.1-0.7-1.4-2.1-0.7-3.1
				c0.7-1.1,2.1-1.4,3.1-0.7c0.5,0.3,0.8,0.4,1.1,0.6c0.4,0.2,0.9,0.4,1.7,0.9l2.7,1.7c0.4,0.3,0.6,0.3,0.9,0.4
				c0.5,0.1,1.1,0.3,2.1,0.9c0.8,0.5,1.1,0.8,1.5,1.1c0.3,0.2,0.5,0.4,1.1,0.8l2.7,1.7c0.8,0.5,1.2,0.8,1.5,1.1
				c0.3,0.2,0.5,0.4,1.1,0.8c0.7,0.5,1.1,0.7,1.4,1c0.3,0.2,0.6,0.4,1.2,0.8c0.7,0.5,1.1,0.7,1.4,1c0.3,0.2,0.6,0.4,1.2,0.8
				c0.7,0.5,1.1,0.7,1.4,1c0.3,0.2,0.6,0.4,1.2,0.8c0.3,0.2,0.4,0.2,0.8,0.3c0.5,0.1,1.3,0.3,2.3,0.9c0.9,0.6,1.4,1.1,1.7,1.4
				c0.2,0.3,0.4,0.4,0.8,0.7c0.6,0.4,0.8,0.5,1.2,0.6c0.4,0.2,0.9,0.4,1.7,0.9c0.8,0.5,1.1,0.8,1.5,1.1c0.3,0.2,0.6,0.4,1.2,0.8
				c0.7,0.5,1.1,0.7,1.4,0.9c0.3,0.2,0.6,0.4,1.3,0.9c1.1,0.7,1.4,2.1,0.7,3.1C707.9,137.4,707.2,137.8,706.4,137.8z"/>
		</g>
		<g>
			<path d="M607.1,146.1c-0.9,0-1.8-0.3-2.5-0.9c-0.8-0.7-1.7-1.3-2.7-1.9c-1.2-0.8-2.5-1.6-3.7-2.7c-2.1-2-4.3-4.9-2.9-10.5
				c0.6-2.3,1.8-4.7,3.9-8c1-1.5,1.8-3.9,2.4-5.8c0.6-1.8,1.1-4,1.6-6.6c0.3-1.4,0.4-2.9,0.5-4.4c0.1-0.9,0.1-1.7,0.2-2.5
				c0.2-1.6,0.3-2.6,0.5-3.3c0.2-1.1,0.2-1.6,0.3-3.6c0.1-2.1,1.9-3.7,4-3.6c2.1,0.1,3.7,1.9,3.6,4c-0.1,2.3-0.2,3-0.4,4.4
				c-0.1,0.7-0.2,1.5-0.4,3c-0.1,0.7-0.1,1.5-0.2,2.3c-0.1,1.6-0.3,3.3-0.6,5.2c-0.6,2.9-1.1,5.3-1.8,7.4c-0.8,2.5-1.8,5.4-3.2,7.6
				c-1.6,2.5-2.5,4.4-2.9,5.8c-0.5,1.9-0.1,2.3,0.7,3.1c0.7,0.6,1.6,1.3,2.6,1.9c1.1,0.7,2.4,1.6,3.6,2.6c1.6,1.4,1.7,3.8,0.4,5.3
				C609.2,145.7,608.1,146.1,607.1,146.1z"/>
		</g>
		<g>
			<path d="M623.6,118.5c-0.6,0-1.2-0.2-1.8-0.6c-2.2-1.5-1.5-4.6-1.2-5.7c0.2-0.7,0.3-1.4,0.6-2.3c-1.5,1.2-3.1,2.1-4,2.7
				c-0.6,0.4-2.5,1.5-4.1,0.3c-1.6-1.2-1.1-3.2-0.5-5.6c0.1-0.4,0.2-0.8,0.3-1.2c0.4-1.7,0.6-2.9,0.7-3.9c-0.1,0.1-0.3,0.2-0.4,0.4
				c-0.6,0.5-1,0.9-1.3,1.2c-0.8,0.7-1.2,1.1-2.2,2.5c-0.8,1-2.2,1.2-3.2,0.4c-1-0.8-1.2-2.2-0.4-3.2c1.3-1.6,1.8-2.2,2.8-3.1
				c0.3-0.3,0.7-0.6,1.2-1.1c1.7-1.6,3.7-3.2,5.7-2.5c0.7,0.2,1.9,0.9,2.2,2.8c0.3,1.7,0.1,4.1-0.7,7.5c0,0,0,0,0,0
				c1.1-0.7,2.3-1.7,3.2-2.6c0.5-0.5,0.9-1,1.3-1.4c1.3-1.4,2.6-2.8,4.3-1.9c1.9,1,1.3,3.1,0.7,5.5l-0.6,2.1c-0.4,1.6-0.8,3-1.1,4.1
				c0,0,0,0,0,0c1-0.7,2.4-0.5,3.2,0.6c0.7,1,0.5,2.4-0.6,3.2C626.9,117.4,625.3,118.5,623.6,118.5z M624.8,114.9L624.8,114.9
				L624.8,114.9z"/>
		</g>
		<g>
			<path d="M668.3,134.6c-0.8,0-1.5-0.4-2-1.1l-1.7-2.9c-0.4-0.7-0.6-1-0.8-1.3c-0.2-0.4-0.5-0.8-1-1.5c-0.5-0.8-0.7-1.2-0.9-1.6
				c-0.2-0.3-0.4-0.7-0.8-1.4c-0.4-0.7-0.6-1-0.8-1.4c-0.2-0.4-0.5-0.8-0.9-1.5c-0.6-1.1-0.3-2.5,0.8-3.1c1.1-0.6,2.5-0.3,3.1,0.8
				c0.4,0.7,0.6,1,0.8,1.4c0.2,0.4,0.5,0.7,0.9,1.5c0.5,0.8,0.7,1.2,0.9,1.6c0.2,0.3,0.4,0.7,0.8,1.4c0.4,0.7,0.6,1,0.8,1.3
				c0.2,0.4,0.5,0.8,0.9,1.5l1.7,2.9c0.6,1.1,0.3,2.5-0.8,3.1C669.1,134.5,668.7,134.6,668.3,134.6z"/>
		</g>
	</g>
</g>
</svg>
